<svg xmlns="http://www.w3.org/2000/svg" xmlns:xlink="http://www.w3.org/1999/xlink" width="73" height="73" viewBox="0 0 73 73"><defs><filter id="a" x="0" y="0" width="73" height="73" filterUnits="userSpaceOnUse"><feOffset dx="-2" dy="2" input="SourceAlpha"/><feGaussianBlur stdDeviation="5" result="b"/><feFlood flood-opacity="0.161"/><feComposite operator="in" in2="b"/><feComposite in="SourceGraphic"/></filter></defs><g transform="translate(-2840 -1049)"><g transform="matrix(1, 0, 0, 1, 2840, 1049)" filter="url(#a)"><circle cx="21.5" cy="21.5" r="21.5" transform="translate(17 13)" fill="#fff"/></g><path d="M14,4a2,2,0,0,0-2,2v6H6a2,2,0,0,0-2,2v2a2,2,0,0,0,2,2h6v6a2,2,0,0,0,2,2h2a2,2,0,0,0,2-2V18h6a2,2,0,0,0,2-2V14a2,2,0,0,0-2-2H18V6a2,2,0,0,0-2-2Z" transform="translate(2857.787 1084) rotate(-45)" fill="#7bc4ee"/></g></svg>