<svg xmlns="http://www.w3.org/2000/svg" width="1672.615" height="993.2" viewBox="0 0 1672.615 993.2"><g transform="matrix(0.966, -0.259, 0.259, 0.966, 301.74, 305.681)"><path d="M1475.319,364.265a3.3,3.3,0,0,0-2.81.687l-23.869-26.228a3.254,3.254,0,0,0,.9-1.535,3.344,3.344,0,1,0-6.518-1.5,2.758,2.758,0,0,0-.008.372l-160.405,2.268a3.326,3.326,0,0,0-5.988-1.5L1200.795,291.4a3.761,3.761,0,0,0,.3-.67,3.345,3.345,0,0,0-6.518-1.51,3.209,3.209,0,0,0-.021.865l-117.645,16.789a3.27,3.27,0,0,0-6.112-.716l-121.655-47.18c.008-.037.037-.062.045-.1a3.344,3.344,0,0,0-6.518-1.5,3.246,3.246,0,0,0,.12,1.738l-87.519,36.805a3.261,3.261,0,0,0-5.793-.025L741.172,250.2c.017-.079.074-.132.091-.207a3.343,3.343,0,0,0-2.508-4.01,3.294,3.294,0,0,0-3.77,1.978L592.846,207.29a3.285,3.285,0,0,0-4.871-3.414L490.07,71.052a3.253,3.253,0,0,0,.981-1.61,3.344,3.344,0,1,0-6.518-1.5,3.312,3.312,0,0,0-.012.571L316.662,82.233a3.331,3.331,0,0,0-6.505-.05,3.263,3.263,0,0,0,.074,1.614L170.894,140.537a3.271,3.271,0,0,0-2.144-1.643,3.342,3.342,0,0,0-3.575,5.04L45.713,241.948a3.258,3.258,0,0,0-1.5-.869,3.346,3.346,0,0,0-4.01,2.508,3.255,3.255,0,0,0-.025.873l-152.361,25.015a3.29,3.29,0,0,0-2.4-2.321,3.345,3.345,0,0,0-4.014,2.508,3.342,3.342,0,0,0,2.508,4.006,3.35,3.35,0,0,0,2.479-.4l54.248,73.6a3.265,3.265,0,0,0-1.068,1.7,3.346,3.346,0,0,0,2.5,4.014,3.3,3.3,0,0,0,3.178-1.035L49.731,427.608a3.32,3.32,0,1,0,6.12,2.375,3.266,3.266,0,0,0-.062-1.577l122.586-47.035a3.261,3.261,0,0,0,5.992-.343l145.884,36.3a3.259,3.259,0,0,0,5.587,2.719L455.59,513.1a3.219,3.219,0,0,0-.422.931,3.344,3.344,0,1,0,6.505.058l61.03-18.043a3.26,3.26,0,0,0,5.847.629L645,554.73a3.724,3.724,0,0,0-.17.372,3.343,3.343,0,0,0,6.513,1.506,3.209,3.209,0,0,0-.145-1.8L786.564,489.35a3.312,3.312,0,0,0,5.429.228l118.895,71.748a3.21,3.21,0,0,0-.269.6,3.343,3.343,0,1,0,6.514,1.506,3.3,3.3,0,0,0-.261-2.106l91.955-53.275a3.291,3.291,0,0,0,1.933,1.324,3.348,3.348,0,0,0,4.01-2.508,3.274,3.274,0,0,0-.041-1.527l134.123-49.886a3.294,3.294,0,0,0,2.185,1.742,3.317,3.317,0,0,0,3.484-5.135l32.229-27.635,137.877-.315a3.319,3.319,0,1,0,6.5-1.221l140.521-53.809a3.279,3.279,0,0,0,2.168,1.7,3.342,3.342,0,0,0,1.5-6.514Zm-1587.376-93.97L40.3,245.275a3.16,3.16,0,0,0,.617,1.15L-55.164,346.661a3.337,3.337,0,0,0-1.258-.6,3.312,3.312,0,0,0-2.479.4l-54.256-73.606a3.211,3.211,0,0,0,1.076-1.7A3.407,3.407,0,0,0-112.056,270.294ZM1014.195,504.178a3.258,3.258,0,0,0-1.138-.964l29.075-76.888a3.307,3.307,0,0,0,2.537-2.09l77.682,21.788ZM648.844,552.6a3.334,3.334,0,0,0-1.051-.033L616.132,406.731a3.3,3.3,0,0,0,2.135-2.264l80.174,13.466a3.268,3.268,0,0,0,1.721,3.157L648.927,552.636C648.9,552.628,648.873,552.607,648.844,552.6ZM526.523,491.614a3.238,3.238,0,0,0-1.713.108L470.289,367.228a3.29,3.29,0,0,0,1.366-1.643l140.124,37.583a3.263,3.263,0,0,0,.728,2.553l-84.68,86.538A3.168,3.168,0,0,0,526.523,491.614ZM-54.635,347.232,41.451,247a3.333,3.333,0,0,0,1.254.6,3.259,3.259,0,0,0,1.113.029l15.055,76.424A3.077,3.077,0,0,0,56.5,327.5L-54.022,348.374A3.394,3.394,0,0,0-54.635,347.232ZM169.987,144.787l76.4,82.077a3.29,3.29,0,0,0-.753,1.37l-79.607-12.526a3.3,3.3,0,0,0-2.52-3.489c-.087-.021-.17.008-.257,0l4.775-66.787A3.245,3.245,0,0,0,169.987,144.787ZM486.937,71.9,469.424,181.17a3.3,3.3,0,0,0-3.439,2.52c-.012.05.008.1,0,.145l-76.251-7.589a3.227,3.227,0,0,0-.749-2.152L485.8,71.371A3.359,3.359,0,0,0,486.937,71.9Zm99.371,134.624a3.347,3.347,0,0,0-.025.836L530.1,225.084l-57.935-39.143a3.729,3.729,0,0,0,.252-.555Zm608.714,85.243a3.336,3.336,0,0,0,1.523,1.212l-35.51,126.435-62.71-80.7Zm86.2,49.741a3.283,3.283,0,0,0,1.208-1.635L1392.6,365.316c0,.05,0,.1,0,.149l-95.257,4.192Zm111.355,24.751a3.208,3.208,0,0,0,.6,1.378l-62.955,53.7a3.216,3.216,0,0,0-1.548-.915,3.268,3.268,0,0,0-2.115.269l-28.777-50.271Zm.989,1.8a3.221,3.221,0,0,0,1.552.919,3.346,3.346,0,0,0,4.01-2.508,3.243,3.243,0,0,0,.012-.4l6.1.137-69.874,51.5Zm5.587-2.533c0-.1.021-.2.008-.3l10.474-2.259-3.679,2.71Zm-149.981,4.217a3.075,3.075,0,0,0-2.624-.766l26.1-23.571Zm-5.363,1.7c0,.025-.025.046-.029.07a3.284,3.284,0,0,0,.31,2.235l-9.2,5.752Zm5.657-1.386,27.718-28.736a3.232,3.232,0,0,0,1.386.737,3.27,3.27,0,0,0,2.115-.265l15.969,27.9-46.323,2.036A3.307,3.307,0,0,0,1249.464,370.054Zm191.93-14.4-29.038,6.278,11.4-8.413,17.645,1.75A3,3,0,0,0,1441.394,355.653Zm.033-1.242v0l-16.648-1.647,19.106-14.086a3.263,3.263,0,0,0,1.643,1.014c.1.021.2,0,.306.008l-1.039,12.187A3.286,3.286,0,0,0,1441.427,354.412Zm-17.807-1.759-4.1-.4,21.92-12.733Zm-1.018.753-12.1,8.922-11.463,2.479a3.523,3.523,0,0,0-.207-.538l19.441-11.289Zm-23.989,10.441a3.279,3.279,0,0,0-5.86.8l-107.54-24.837L1417.471,352.9Zm-153.255,5.024-1.85-3.087,29.274-21.672Zm-.455.414-14.219,12.837-59.3,37.049,71.641-53.031ZM938.349,478.525a3.275,3.275,0,0,0-1.324-1.084l26.9-74.078,17.96,4.647,12.05,40.435ZM618.321,403.892a3.275,3.275,0,0,0-.546-2.139l42.119-37.774,39.536,51.852a3.3,3.3,0,0,0-.943,1.527ZM471.878,364.819a3.232,3.232,0,0,0-.07-1.3L574.34,322.618l38.874,78.237a3.336,3.336,0,0,0-1.208,1.548ZM165.853,216.593a2.186,2.186,0,0,0,.141-.319L245.6,228.809a3.26,3.26,0,0,0,1.548,3.037l-9.431,21.047Zm422.971-6.555a4.192,4.192,0,0,0,.641.021l2.127,54a3.3,3.3,0,0,0-2.131,1.13l-28.7-19.392,27.056-36.222A3.4,3.4,0,0,0,588.824,210.038ZM660.46,363.47l65.1-58.386-23.6,109.832a3.36,3.36,0,0,0-1.957.414Zm-111.6-96.611,24.726,14.413L560.01,291.958l-12.042-24.229A3.323,3.323,0,0,0,548.865,266.86Zm.232-.5a3.731,3.731,0,0,0,.3-.654c.008-.041-.008-.079,0-.12l39.28,2.024a3.2,3.2,0,0,0,.435,1.465l-15.055,11.835Zm40.55,3.327a3.247,3.247,0,0,0,1.556.919,3.208,3.208,0,0,0,.931.029l3.915,23.1-21.237-12.382Zm23.017,36.751-12.837,5.123-2.814-16.627,15.891,9.261a2.908,2.908,0,0,0-.3.662A3.284,3.284,0,0,0,612.664,306.437Zm.294.77a3.31,3.31,0,0,0,2.152,1.659,2.876,2.876,0,0,0,.422.008l-.757,90.9-14.807-87.391Zm.17-3.513-16.234-9.464-4.018-23.716a3.389,3.389,0,0,0,.654-.252l20.406,32.659A3.333,3.333,0,0,0,613.128,303.694Zm-70.259-39.3-114.786-5.905c-.008-.1.025-.219.008-.327l85.392-26.927L543.63,262.8a3.2,3.2,0,0,0-.753,1.395C542.861,264.265,542.881,264.331,542.869,264.4Zm2.516,3.811a3.257,3.257,0,0,0,1.837-.161l12.133,24.42-88.438,69.555L470.9,362l73.49-94.24A3.188,3.188,0,0,0,545.385,268.209Zm-73.921,94.426,88.264-69.418,14.244,28.661L471.51,362.754A.6.6,0,0,0,471.464,362.634ZM560.378,292.7l13.971-10.983,21.821,12.721,2.951,17.405-24.395,9.733Zm38.878,19.971,14.873,87.792c-.058.021-.116.05-.174.07l-38.866-78.22Zm16.54,87.7a3.527,3.527,0,0,0-.418-.012l.757-91.471a3.314,3.314,0,0,0,1.428-.422l41.817,54.839L617.2,401.132A3.321,3.321,0,0,0,615.8,400.375Zm2.346-92.4a3.287,3.287,0,0,0,.977-1.614,3.033,3.033,0,0,0,.017-.724l108.595-10.627-1.866,8.678L659.947,362.8ZM726.668,304.1l8.819-7.908a3.316,3.316,0,0,0,.91.534L704.545,407.083Zm7.705-10.6,0,.17-5.574.542.352-1.659Zm.012.861a3.279,3.279,0,0,0,.526,1.212l-7.945,7.126,1.672-7.776Zm9.311,10.482,60,103.157-1.916,4.395-3.65.2Zm236.987-19.793,29.1,66.381-34.206,23.629a3.28,3.28,0,0,0-1.742-1.113c-.079-.021-.157.008-.244-.008l5.574-90.047Zm86.187,65.5a3.231,3.231,0,0,0-.414.9,3.4,3.4,0,0,0-.033,1.291l-5.272,1.362,1.817-6.518Zm-26.195,69.344-23.567-53.764,43.087-11.148-18.034,64.8A3.253,3.253,0,0,0,1040.675,419.882Zm-64.684-44.275,34.074-23.534,6,13.685-39.892,10.325A3.614,3.614,0,0,0,975.991,375.608Zm-.033,3.182a3.214,3.214,0,0,0,.381-.84,3.32,3.32,0,0,0,.037-1.291l39.938-10.333,23.6,53.846a3.276,3.276,0,0,0-.9.79Zm85.007-24.014,5.665-1.469a3.219,3.219,0,0,0,1.539,1.779l-2.247,5.947-22.45,56.582Zm-.579-.488-43.53,11.264-6.112-13.95,30.134-20.819,21.5,16.342Zm-49.923-3.335-28.45-64.9,58.283,44.291ZM913.4,389.4,880.9,380.983c.008-.07,0-.141,0-.219l87.974-3.12ZM809.808,411.337h0L851.534,392.6l-38,17.952Zm-5.069-1.556a3.332,3.332,0,0,0-1.287,1.9,3.854,3.854,0,0,0-.016.617l-.853.045,1.564-3.58Zm-2.442,3.211,1.126-.058a3.313,3.313,0,0,0,.5,1.324l-1.291.931a3.357,3.357,0,0,0-.939-.815Zm.629,2.57c-.029-.054-.054-.108-.087-.161l1.291-.923a4.445,4.445,0,0,0,.331.356Zm7.068-3.385.165-.033-.165.079Zm5.951-2.139,58.816-27.78a3.318,3.318,0,0,0,.509.6l-14.616,17.711Zm59.884-26.679a3.211,3.211,0,0,0,1.051.484,3.284,3.284,0,0,0,2.1-.265l6.783,11.67-23.935,5.069Zm3.745-.1a3.274,3.274,0,0,0,1.1-1.448l30.842,7.987L886.456,395.1Zm-4.924-4.035a3.081,3.081,0,0,0-.269.608,3.213,3.213,0,0,0,.157,1.846l-64.924,29.158a3.24,3.24,0,0,0-1.37-1.308l22.781-57.385Zm-73.159,33.813-.455,1.039c-.079-.025-.145-.083-.228-.1a3.24,3.24,0,0,0-1.887.178l-.48-.948Zm1.639,3.054,1.821-.857a3.163,3.163,0,0,0,.761.339l-.8,3.48-1.721-.8c.033-.1.1-.17.124-.269A3.235,3.235,0,0,0,803.129,416.092Zm6.853-3.236,2.586-1.225,47.2-10-22.044,26.716-27.954-14.74a3.047,3.047,0,0,0,.194-.426C809.995,413.075,809.966,412.967,809.982,412.856ZM915.267,389.88l54.724-11.587a3.249,3.249,0,0,0,1.672,1.858l-8.074,22.239Zm56.987-9.46c.029,0,.05.029.075.033a3.23,3.23,0,0,0,1.349.029l7.921,26.571-17.381-4.5Zm2.115-.2a3.331,3.331,0,0,0,1.308-.956l63.058,42.177a3.524,3.524,0,0,0-.161.36L982.43,407.269Zm92.994-30.329-.19-.145-3.944-3.124,9.932-35.68h.046l-3.41,37.968A3.282,3.282,0,0,0,1067.362,349.893ZM851.6,300.739a3.331,3.331,0,0,0,1.444-.008l23.36,76.805a3.333,3.333,0,0,0-1.345.956l-43.72-27.142,20.12-50.677C851.517,300.689,851.555,300.727,851.6,300.739Zm-116.983-8.326c-.041.1-.1.2-.137.306l-5.177-.939.48-2.206ZM589.039,265.85a3.076,3.076,0,0,0-.339.749c-.012.05,0,.1,0,.157l-39.276-2.024a3.287,3.287,0,0,0-1.109-2.264l11.98-16.044Zm-76.226-35.315-85.036,26.82a3.227,3.227,0,0,0-1.026-1.312l41.059-68.649a3.6,3.6,0,0,0,.679.31,3.3,3.3,0,0,0,2.781-.662Zm-45.524-43.381-41.055,68.653a3.3,3.3,0,0,0-.683-.314,3.244,3.244,0,0,0-1.866.174l-20.2-43.5,62.872-26.083A3.342,3.342,0,0,0,467.289,187.154Zm-81.585-7.7a3.318,3.318,0,0,0,1.866-.166L402.6,211.643l-66.89,27.751,48.972-60.4A3.5,3.5,0,0,0,385.7,179.456Zm-51.459,60.55-9.965,4.134a2.8,2.8,0,0,0-.315-.414c-.033-.054-.062-.1-.1-.149L380.138,183.4Zm-14.322,8.707a3.147,3.147,0,0,0,.72.327,3.012,3.012,0,0,0,.546.012l.459,6.493L301.02,280.987Zm2.139.327a3.328,3.328,0,0,0,2.591-2.508v-.025l3.923.492-6.125,7.552Zm2.611-3.166a3.237,3.237,0,0,0-.1-.964l8.574-3.559-4.113,5.073Zm-73.4-14.591a3.331,3.331,0,0,0,.749-1.25L312.95,244.1a3.316,3.316,0,0,0,2.516,3.741,3.269,3.269,0,0,0,2.789-.679,3.35,3.35,0,0,0,.277.315,3.264,3.264,0,0,0,1.006,1.055L300.349,281.3a3.233,3.233,0,0,0-.72-.327,3.29,3.29,0,0,0-2.764.646Zm78.647,15.249,4.693-5.789,68.33-28.347,20.194,43.476a3.329,3.329,0,0,0-1.6,2.127v.025ZM702.96,415.161l34.115-118.212a3.336,3.336,0,0,0,1.7-.178l58.531,115.862L705,417.693A3.282,3.282,0,0,0,702.96,415.161Zm157.993-13.772,25.264-5.355,47.449,81.684a3.388,3.388,0,0,0-.8.79l-94.455-49.8Zm75.406,75.746a3.3,3.3,0,0,0-2.106.265l-47.345-81.51,26.476-5.607L963.29,403.2l-26.861,73.966C936.4,477.163,936.388,477.143,936.359,477.134Zm106.7-57.041,11.194-28.218L1043.51,420.3A3.36,3.36,0,0,0,1043.063,420.093Zm29.472-66.186a3.093,3.093,0,0,0,.435-.964,3.239,3.239,0,0,0-.157-1.833l18.742-9.1,23.716,44.424Zm-.029-43.17-9.861,35.427-20.5-16.255,29.079-20.087A3.242,3.242,0,0,0,1072.506,310.737Zm-91.165-26.211-.563-1.3a3.276,3.276,0,0,0,.654-.571l59.416,47.085Zm-5.719-3.331.36.277a3.308,3.308,0,0,0,.5.923l-20.124,19.884-4.089-17.931ZM977,282.957a3.293,3.293,0,0,0,1.324.67c.083.021.166-.008.248.008l-5.591,90.279c-.1,0-.2-.021-.294-.008l-16.131-70.755Zm-4.982,91.136a3.28,3.28,0,0,0-1.461.968l-52.026-34.347,37.443-36.987Zm-1.866,1.63a1.723,1.723,0,0,0-.343,1.287l-88.885,3.157a3.287,3.287,0,0,0-.691-1.614l37.745-37.285ZM879.707,378c-.05-.037-.075-.091-.128-.128L904.834,332.6l12.489,8.247Zm-.819-.443a2.735,2.735,0,0,0-.5-.228,3.269,3.269,0,0,0-1.444.008l-23.36-76.809a3.249,3.249,0,0,0,1.3-.915L904.2,332.173ZM830.74,350.977l-1.064-.658,14.608-33.449Zm-.319.795L807.6,409.235c-.046-.012-.087-.046-.136-.058a3.282,3.282,0,0,0-1.618.066l-.939-2.231,24.424-55.92Zm-25.9,54.318-40.128-95.3,64.316,39.926Zm-.687.658L739.616,296.332a2.931,2.931,0,0,0,.6-.559L763.1,309.98ZM735.023,291.639l-5.049-2.955,7.772-36.172.021,0L737.46,290.4A3.3,3.3,0,0,0,735.023,291.639Zm-6.029-2.529-.538,2.516-58.5-10.573,25.359-11.707Zm-.708,3.286-.406,1.9L619.12,304.939a3.7,3.7,0,0,0-.141-.368l49.737-22.95ZM618.718,303.884a3.36,3.36,0,0,0-2.106-1.535,3.465,3.465,0,0,0-1.3-.037l-8.475-31.877L667.45,281.4Zm-4-1.353a3.827,3.827,0,0,0-.43.161l-20.406-32.655a3.311,3.311,0,0,0,1.233-1.717l11.033,1.995Zm-19.487-34.989c0-.066,0-.137,0-.207l9.8-1.213.89,3.356Zm-.066-.985a2.879,2.879,0,0,0-3.1-2.483l-2.123-54.008c.062-.008.124.017.186,0l14.7,55.291Zm-35.307-20.422L547.9,262.15a3.252,3.252,0,0,0-1.01-.459,3.3,3.3,0,0,0-2.781.662l-29.928-31.335,15.887-5.011Zm-46.348-15.82L471.8,186.64l57.351,38.746Zm-47.449-45-62.926,26.112L388.112,179.08a3.307,3.307,0,0,0,1.6-2.127c.012-.05,0-.1,0-.149l76.247,7.594A3.228,3.228,0,0,0,466.064,185.316Zm-82.057-6.936-60.55,64.759a2.327,2.327,0,0,0-2.094-.985l-1.883-39.818,64.055-24.6A2.981,2.981,0,0,0,384.007,178.381ZM320.531,242.13a3.317,3.317,0,0,0-1.469.712,3.308,3.308,0,0,0-5.992.749l-60.931-14.07a3.248,3.248,0,0,0-.062-1.3l66.588-25.57ZM247.918,232.2a1.309,1.309,0,0,0,.207.091,3.27,3.27,0,0,0,2.76-.646l45.595,50.333a3.875,3.875,0,0,0-.368.414l-57.633-29.112Zm53.3,49.741,20.5-25.3,1.568,22.284-21.287,4.308A3.235,3.235,0,0,0,301.222,281.939Zm21.308-26.286,6.923-8.541,92.067,11.55a3.055,3.055,0,0,0-.008.389l-97.355,19.7Zm105.524,3.853a1.009,1.009,0,0,0,0-.157l114.79,5.9a3.252,3.252,0,0,0,1,2.057l-73.495,94.239a2.935,2.935,0,0,0-2.686-.343l-41.3-99.541A3.271,3.271,0,0,0,428.054,259.506ZM797.621,413.249l.608,1.2a3.269,3.269,0,0,0-1.432,2.028,3.127,3.127,0,0,0-.017.48l-81.254.795Zm5.239,5.723,1.866.873-14.066,60.914,9.158-60.256A3.27,3.27,0,0,0,802.86,418.972Zm-12.5,65.421,14.86-64.32,28.409,13.242-42.458,51.446A3.617,3.617,0,0,0,790.363,484.393Zm15.042-65.1.828-3.6a3.3,3.3,0,0,0,3.224-1.374l27.767,14.641-3.075,3.72Zm32.5,10.027,83.455,44.006-86.505-40.314Zm144.817-21.088,55.626,14.405a3.279,3.279,0,0,0,.232,1.651l-43.977,23.8Zm56.151,16.677a3.276,3.276,0,0,0,1.361,1.1l-25.735,71.02-2.206,5.839-.029-.012a3.358,3.358,0,0,0-1.345-.029L994.8,448.755Zm1.883,1.341c.041.012.066.033.1.046.132.029.257-.008.381.008l-12.1,32Zm3.406-5.293,24.779-65.516.025.008a3.321,3.321,0,0,0,2.549-.447l55.171,68.392-81.783-.679A3.255,3.255,0,0,0,1044.159,420.954Zm27.887-66.447.066-.062,43.931,33.428,18.994,35.593-7.416-.066Zm78.58,96.358-7.9-14.8,16.06-8.636-6.53,23.244A3.178,3.178,0,0,0,1150.627,450.865Zm-8.314-15.572-5.934-11.119,23.265.19-.534,1.9Zm18.22-10.925.323,0a3.362,3.362,0,0,0,.211.836l-.9.488Zm4.039-3.584a3.306,3.306,0,0,0-2.152.414l-.728-.944,28.678-102.106Zm-2.739.931-.091.083-.4-.306.083-.294Zm-.513.621a3.23,3.23,0,0,0-.434.964,2.876,2.876,0,0,0-.013.377h-.141l.414-1.477Zm-1.482,1.333-23.84-.2L1117.654,389.1l42.756,32.535Zm-24.428.492,6.153,11.533-2.806,1.51L1128.186,424.1Zm6.567,12.3,7.482,14.016-10.147-12.58Zm17.856-9.6,1.626-.869a3.226,3.226,0,0,0,1.258,1.014l-9.1,22.019ZM1091.2,341.335l-18.667,9.063a3.345,3.345,0,0,0-2.065-1.465c-.083-.017-.161,0-.248-.008l3.41-37.968a3.124,3.124,0,0,0,1.242-.207ZM952.109,283.648l-5.115-22.417a3.286,3.286,0,0,0,1.291-.815l26.534,20.165Zm-215.216-31.31-7.705,35.878L696.277,268.9l38.874-17.935A3.323,3.323,0,0,0,736.893,252.339ZM587.4,209.26l-27.072,36.251-29.311-19.805,55.58-17.529A3.335,3.335,0,0,0,587.4,209.26ZM182.059,376.588a3.023,3.023,0,0,0-.7-.017L163.548,218.687a3.288,3.288,0,0,0,1.974-1.366l71.872,36.3L182.261,376.679C182.191,376.659,182.137,376.6,182.059,376.588ZM1166.535,421.8a3.3,3.3,0,0,0-1.233-.824l32.1-127.742a3.26,3.26,0,0,0,1.858-.3l43.364,72.539Zm-5.76-1.448-.166.579-43.724-33.275-24.569-46.021,5.289-2.566Zm-68.814-79.392-15.634-29.278,20.8,26.77Zm-21.51-33.9a3.294,3.294,0,0,0,.356,2.21l-29.237,20.194-59.7-47.312a3.5,3.5,0,0,0,.265-.579ZM975.8,280.313l-21.382-16.247L976.235,278.7a2.155,2.155,0,0,0-.435,1.61Zm-30.619-18.928a3.447,3.447,0,0,0,1.146.029l5.086,22.33L930.5,286.57l14.169-25.417A3.544,3.544,0,0,0,945.182,261.385Zm6.394,23.058,4.2,18.407-37.885,37.434-12.675-8.367,24.854-44.569Zm-47,47.056-49.286-32.543a3.547,3.547,0,0,0,.323-.724,3.126,3.126,0,0,0,.025-.832l73.49-9.928Zm-53.863-31.165-21.664,49.6-65.218-40.484-6.22-14.765,91.463,3.021A3.262,3.262,0,0,0,850.715,300.334Zm-88.185,8.305-21.9-13.594a3.457,3.457,0,0,0,.273-.6,2.631,2.631,0,0,0,.008-.315l15.729.521Zm-21.6-15.175a3.3,3.3,0,0,0-2.533-3.037,3.541,3.541,0,0,0-.513-.012l.306-37.889a3.015,3.015,0,0,0,.675-.1l17.492,41.544Zm-6.042-43.186L695.5,268.449l-19.048-11.177,58.341-7.234A2.4,2.4,0,0,0,734.886,250.278Zm-40.339,18.614-25.856,11.93L606.606,269.6l-.944-3.555,69.377-8.6Zm-89.087-3.613-14.74-55.419a3.319,3.319,0,0,0,1.482-1.035l81.734,47.966ZM383.254,177.011l-63.815,24.506-5.45-115.282a3.446,3.446,0,0,0,1.212-.472l68.976,88.074a3.3,3.3,0,0,0-.981,1.61A3.267,3.267,0,0,0,383.254,177.011ZM312.665,86.2a3.209,3.209,0,0,0,.488.012l5.471,115.617L251.8,227.489a3.257,3.257,0,0,0-1.225-1.283l61.891-140.1C312.532,86.127,312.59,86.181,312.665,86.2ZM160.259,217.607,61.736,324.517a3.283,3.283,0,0,0-1.2-.55,3.392,3.392,0,0,0-1.117-.033L44.368,247.505a3.3,3.3,0,0,0,2.346-2.413,3.216,3.216,0,0,0,.033-1.192l112.919-27.316A3.369,3.369,0,0,0,160.259,217.607ZM62.286,325.1,160.8,218.19a3.31,3.31,0,0,0,1.2.546,3.617,3.617,0,0,0,.7.021L180.519,376.63a3.3,3.3,0,0,0-2.069,1.581L62.94,328.2c.025-.079.079-.141.1-.219A3.284,3.284,0,0,0,62.286,325.1Zm120.749,51.935L238.148,254.01l57.633,29.108a2.932,2.932,0,0,0-.161.364,3.321,3.321,0,0,0,.435,2.533L183.586,377.478A2.988,2.988,0,0,0,183.035,377.031Zm119.1-92.046a3.356,3.356,0,0,0,.033-1.055l21.183-4.283,9.427,133.734L300.06,287.294A3.28,3.28,0,0,0,302.133,284.985Zm32.141,129.485a3.5,3.5,0,0,0-.55-.012l-9.518-134.988,97.463-19.719a3.15,3.15,0,0,0,4.076,2.156l41.3,99.536a3.176,3.176,0,0,0-1.622,3.762L336.43,416.162A3.3,3.3,0,0,0,334.274,414.469Zm370.7,4,91.786-.9a3.312,3.312,0,0,0,2.533,2.917l-9.7,63.786a3.262,3.262,0,0,0-2.6.981l-82.5-65.276a3.275,3.275,0,0,0,.472-1.035A3.037,3.037,0,0,0,704.979,418.467Zm86.749,66.8,42.607-51.624,98.138,45.727c-.033.1-.1.174-.124.273a3.188,3.188,0,0,0-.017.526L792.66,486.992A3.282,3.282,0,0,0,791.729,485.266Zm146.911-6.12,55.5-30.031,16.089,53.975a3.265,3.265,0,0,0-1.721,1.717l-69.667-23.6.029-.054A3.235,3.235,0,0,0,938.639,479.146ZM1044.875,423.6c.012-.066,0-.128,0-.194l82.367.683,10.859,13.462-14.906,8.02Zm93.788,14.641,10.792,13.375a3.3,3.3,0,0,0-.724,1.113l-24.325-6.82Zm14.55,12.737,9.849-23.82a2.078,2.078,0,0,0,.327.145,3.341,3.341,0,0,0,4.01-2.5c.025-.116,0-.232.012-.344l16.412-.037-29.895,26.994A3.492,3.492,0,0,0,1153.214,450.981Zm14.219-27.354a3.28,3.28,0,0,0-.343-1.059l61.022-38.121-43.356,39.139Zm82.872-51.115,46.786-2.057,28.926,50.511a3.5,3.5,0,0,0-.737.683l-75.324-47.887a3.178,3.178,0,0,0,.335-.745A2.569,2.569,0,0,0,1250.3,372.512Zm156.213-6.278,17.877.406L1333.987,419.7Zm.712-.526,4.262-3.145,30.023-6.489a3.428,3.428,0,0,0,.165.422l-16.4,9.621Zm34.811-8.566a3.234,3.234,0,0,0,5.595-.55l23.824,9.849a3.006,3.006,0,0,0-.149.331,3.292,3.292,0,0,0-.012.4l-44.61-1.018Zm-209.729,24.676,11.19-6.989-56.855,48.752h-.592Zm239.3-15.721-23.82-9.849c.037-.12.116-.211.145-.335a3.336,3.336,0,0,0-2.5-4.006c-.1-.025-.207.008-.31-.008l1.039-12.187a3.255,3.255,0,0,0,2.172-.708l23.869,26.228A3.307,3.307,0,0,0,1471.616,366.1Zm-28.3-28.214-24.6,14.285-131.876-13.052,156.147-2.206A3.214,3.214,0,0,0,1443.319,337.884Zm-166.881,2.566-33.325,24.668-43.327-72.477a3.272,3.272,0,0,0,.753-.7l75.824,45.433a3.5,3.5,0,0,0-.3.67A3.3,3.3,0,0,0,1276.437,340.449Zm-81.7-49.4L1097.849,338.1l-21.829-28.086a3.234,3.234,0,0,0,.948-1.585,3.2,3.2,0,0,0,.025-.865l117.645-16.785C1194.658,290.878,1194.708,290.961,1194.736,291.052Zm-212.4-10.06a3.322,3.322,0,0,0-5.909-2.644l-27.507-18.465-.141-.1c.021-.041.033-.087.054-.128l117.645,45.628Zm-38.353-20.153-14.422,25.856-74,9.99c-.021-.066-.05-.12-.075-.186l87.523-36.809A3.329,3.329,0,0,0,943.986,260.839Zm-94.893,36.2-91.765-3.029-17.637-41.891a3.356,3.356,0,0,0,1.188-1.275l108.313,45.686c-.021.074-.07.124-.091.2C849.076,296.833,849.109,296.936,849.092,297.035Zm-114.368-47.78-59.379,7.362-82.706-48.541,142.1,40.654A3.72,3.72,0,0,0,734.725,249.256ZM586.407,205.838,472.515,184.7a3.288,3.288,0,0,0-2.417-3.46L487.612,71.962a3.3,3.3,0,0,0,1.779-.372L587.3,204.414A3.254,3.254,0,0,0,586.407,205.838ZM485.269,70.791,388.444,173.518a3.332,3.332,0,0,0-3.77-.149L315.694,85.3a3.234,3.234,0,0,0,.977-1.61,3.388,3.388,0,0,0,.021-.579L484.545,69.393A3.308,3.308,0,0,0,485.269,70.791ZM311.713,85.767l-61.887,140.1a1.718,1.718,0,0,0-.2-.091,3.28,3.28,0,0,0-2.735.625l-76.408-82.077a3.177,3.177,0,0,0,.774-1.419,3.315,3.315,0,0,0-.07-1.614L310.521,84.555A3.314,3.314,0,0,0,311.713,85.767Zm-144.465,59.64c.087.021.17,0,.257.008L162.733,212.2a3.2,3.2,0,0,0-3.261,3.716L46.549,243.235a3.318,3.318,0,0,0-.265-.674l119.458-98.018A3.328,3.328,0,0,0,167.248,145.407ZM-53.89,349.044,56.629,328.167a3.3,3.3,0,0,0,2.4,2.313c.07.017.137,0,.211.008l-6.729,95.46a3.3,3.3,0,0,0-2.346,1.059L-54.312,350.944a3.423,3.423,0,0,0,.4-.873A3.423,3.423,0,0,0-53.89,349.044ZM53.344,425.978c-.07-.017-.137,0-.207-.008l6.725-95.464a3.273,3.273,0,0,0,2.781-1.651l115.506,50.018c-.025.083-.079.145-.1.223a3.267,3.267,0,0,0,.062,1.577L55.525,427.708A3.3,3.3,0,0,0,53.344,425.978Zm130.788-47.916L296.6,286.6a3.233,3.233,0,0,0,1.527.89,3.287,3.287,0,0,0,1.221.037l32.994,127.142a3.258,3.258,0,0,0-1.879,1.879L184.575,380.234A3.3,3.3,0,0,0,184.132,378.062Zm152.58,38.821L465.7,365.92a3.29,3.29,0,0,0,2.16,1.7c.045.008.087-.008.132,0l-9.741,143.873a3.279,3.279,0,0,0-2.148.964L336.356,419.411a3.372,3.372,0,0,0,.422-.927A3.314,3.314,0,0,0,336.712,416.882Zm122.466,94.641c-.05-.012-.087,0-.137,0l9.745-143.881a2.953,2.953,0,0,0,.786-.137L524.1,491.995a3.3,3.3,0,0,0-1.585,2.123,3.15,3.15,0,0,0,.012,1.444l-61.034,18.047A3.286,3.286,0,0,0,459.178,511.523Zm69.133-18.742,84.676-86.538a3.27,3.27,0,0,0,1.3.646,3.33,3.33,0,0,0,1.051.033l31.666,145.835a3.276,3.276,0,0,0-1.693,1.3L528.861,495.992a3.759,3.759,0,0,0,.166-.372A3.282,3.282,0,0,0,528.311,492.781Zm122.582,61.266a3.26,3.26,0,0,0-1.254-1.084l51.239-131.55a.379.379,0,0,0,.083.033,3.292,3.292,0,0,0,3.112-.968l82.5,65.276a3.51,3.51,0,0,0-.472,1.035,3.264,3.264,0,0,0,.149,1.808Zm141.746-66.273,139.673-6.828a3.312,3.312,0,0,0,2.185,2.545l-20.05,75.924a3.321,3.321,0,0,0-3.2,1.225L792.354,488.891a3.36,3.36,0,0,0,.269-.6A3.13,3.13,0,0,0,792.639,487.774Zm123.919,72.969a3.314,3.314,0,0,0-1.568-1.163l20.046-75.92a3.28,3.28,0,0,0,3.575-1.957l69.667,23.6-.021.058a3.248,3.248,0,0,0,.261,2.106Zm207-114.376,24.966,7a3.282,3.282,0,0,0,.045,1.349l-131.533,48.922Zm61.564-21.945h.538l-10.73,9.2Zm59.656-49.762a3.208,3.208,0,0,0,4.891-.364L1325,422.183a3.147,3.147,0,0,0-.339.749,2.287,2.287,0,0,0-.008.339l-136.921.306Zm181.022-7.987,45.479,1.047a3.557,3.557,0,0,0,.075.6l-139.193,53.308Z" transform="translate(-233.039 55.265) rotate(-4)" fill="#fff" opacity="0.8"/></g></svg>